<svg xmlns="http://www.w3.org/2000/svg" viewBox="0 0 1200 1200" width="1200" height="1200" style="background-color: #0f172a; font-family: -apple-system, BlinkMacSystemFont, Segoe UI, Roboto, Helvetica, Arial, sans-serif;">
  <defs>
    <pattern id="grid" width="40" height="40" patternUnits="userSpaceOnUse">
      <path d="M 40 0 L 0 0 0 40" fill="none" stroke="#1e293b" stroke-width="1"/>
    </pattern>
    <pattern id="waterHatch" width="10" height="10" patternTransform="rotate(45 0 0)" patternUnits="userSpaceOnUse">
      <line x1="0" y1="0" x2="0" y2="10" stroke="#38bdf8" stroke-width="2.5" opacity="0.65"/>
    </pattern>
    <pattern id="crackHatch" width="8" height="8" patternTransform="rotate(-45 0 0)" patternUnits="userSpaceOnUse">
      <line x1="0" y1="0" x2="0" y2="8" stroke="#ef4444" stroke-width="2.5" opacity="0.75"/>
    </pattern>
    <pattern id="moldHatch" width="8" height="8" patternUnits="userSpaceOnUse">
      <circle cx="4" cy="4" r="2.2" fill="#10b981" opacity="0.7"/>
    </pattern>
  </defs>
  <rect width="100%" height="100%" fill="url(#grid)" />
  <polygon points="1080.0,1078.3 628.8,1078.5 628.7,714.9 1079.9,714.7" fill="#1e293b" fill-opacity="0.85" stroke="#64748b" stroke-width="2"/>
  <polygon points="474.1,1079.9 120.1,1080.0 120.0,768.0 474.0,767.9" fill="#1e293b" fill-opacity="0.85" stroke="#64748b" stroke-width="2"/>
  <polygon points="489.6,703.2 489.5,426.0 792.4,425.9 792.5,703.1" fill="#1e293b" fill-opacity="0.85" stroke="#64748b" stroke-width="2"/>
  <polygon points="488.4,1079.6 488.3,714.7 618.3,714.6 618.4,1079.6" fill="#1e293b" fill-opacity="0.85" stroke="#64748b" stroke-width="2"/>
  <line x1="1080.0" y1="1078.3" x2="628.8" y2="1078.5" stroke="#f8fafc" stroke-width="6" stroke-linecap="round"/>
  <text x="854.4" y="1060.4" fill="#94a3b8" font-size="11" font-weight="600" text-anchor="middle" dominant-baseline="middle">5.21m</text>
  <line x1="628.8" y1="1078.5" x2="628.7" y2="714.9" stroke="#f8fafc" stroke-width="6" stroke-linecap="round"/>
  <text x="646.8" y="896.7" fill="#94a3b8" font-size="11" font-weight="600" text-anchor="middle" dominant-baseline="middle">4.20m</text>
  <line x1="628.7" y1="714.9" x2="1079.9" y2="714.7" stroke="#f8fafc" stroke-width="6" stroke-linecap="round"/>
  <text x="854.3" y="732.8" fill="#94a3b8" font-size="11" font-weight="600" text-anchor="middle" dominant-baseline="middle">5.21m</text>
  <line x1="1079.9" y1="714.7" x2="1080.0" y2="1078.3" stroke="#f8fafc" stroke-width="6" stroke-linecap="round"/>
  <text x="1061.9" y="896.5" fill="#94a3b8" font-size="11" font-weight="600" text-anchor="middle" dominant-baseline="middle">4.20m</text>
  <text x="854.4" y="884.6" fill="#f1f5f9" font-size="16" font-weight="bold" text-anchor="middle">Room 01</text>
  <text x="854.4" y="906.6" fill="#38bdf8" font-size="13" font-weight="600" text-anchor="middle">21.89 m²</text>
  <text x="854.4" y="924.6" fill="#64748b" font-size="10" text-anchor="middle">H: 2.74m</text>
  <line x1="474.1" y1="1079.9" x2="120.1" y2="1080.0" stroke="#f8fafc" stroke-width="6" stroke-linecap="round"/>
  <text x="297.1" y="1061.9" fill="#94a3b8" font-size="11" font-weight="600" text-anchor="middle" dominant-baseline="middle">4.09m</text>
  <line x1="120.1" y1="1080.0" x2="120.0" y2="768.0" stroke="#f8fafc" stroke-width="6" stroke-linecap="round"/>
  <text x="138.1" y="924.0" fill="#94a3b8" font-size="11" font-weight="600" text-anchor="middle" dominant-baseline="middle">3.60m</text>
  <line x1="120.0" y1="768.0" x2="474.0" y2="767.9" stroke="#f8fafc" stroke-width="6" stroke-linecap="round"/>
  <text x="297.0" y="786.0" fill="#94a3b8" font-size="11" font-weight="600" text-anchor="middle" dominant-baseline="middle">4.09m</text>
  <line x1="474.0" y1="767.9" x2="474.1" y2="1079.9" stroke="#f8fafc" stroke-width="6" stroke-linecap="round"/>
  <text x="456.1" y="923.9" fill="#94a3b8" font-size="11" font-weight="600" text-anchor="middle" dominant-baseline="middle">3.60m</text>
  <text x="297.1" y="911.9" fill="#f1f5f9" font-size="16" font-weight="bold" text-anchor="middle">Room 02</text>
  <text x="297.1" y="933.9" fill="#38bdf8" font-size="13" font-weight="600" text-anchor="middle">14.74 m²</text>
  <text x="297.1" y="951.9" fill="#64748b" font-size="10" text-anchor="middle">H: 2.68m</text>
  <line x1="489.6" y1="703.2" x2="489.5" y2="426.0" stroke="#f8fafc" stroke-width="6" stroke-linecap="round"/>
  <text x="507.6" y="564.6" fill="#94a3b8" font-size="11" font-weight="600" text-anchor="middle" dominant-baseline="middle">3.20m</text>
  <line x1="489.5" y1="426.0" x2="792.4" y2="425.9" stroke="#f8fafc" stroke-width="6" stroke-linecap="round"/>
  <text x="641.0" y="443.9" fill="#94a3b8" font-size="11" font-weight="600" text-anchor="middle" dominant-baseline="middle">3.50m</text>
  <line x1="792.4" y1="425.9" x2="792.5" y2="703.1" stroke="#f8fafc" stroke-width="6" stroke-linecap="round"/>
  <text x="774.5" y="564.5" fill="#94a3b8" font-size="11" font-weight="600" text-anchor="middle" dominant-baseline="middle">3.20m</text>
  <line x1="792.5" y1="703.1" x2="489.6" y2="703.2" stroke="#f8fafc" stroke-width="6" stroke-linecap="round"/>
  <text x="641.1" y="685.2" fill="#94a3b8" font-size="11" font-weight="600" text-anchor="middle" dominant-baseline="middle">3.50m</text>
  <text x="641.0" y="552.5" fill="#f1f5f9" font-size="16" font-weight="bold" text-anchor="middle">Room 03</text>
  <text x="641.0" y="574.5" fill="#38bdf8" font-size="13" font-weight="600" text-anchor="middle">11.20 m²</text>
  <text x="641.0" y="592.5" fill="#64748b" font-size="10" text-anchor="middle">H: 2.71m</text>
  <line x1="488.4" y1="1079.6" x2="488.3" y2="714.7" stroke="#f8fafc" stroke-width="6" stroke-linecap="round"/>
  <text x="506.4" y="897.1" fill="#94a3b8" font-size="11" font-weight="600" text-anchor="middle" dominant-baseline="middle">4.22m</text>
  <line x1="488.3" y1="714.7" x2="618.3" y2="714.6" stroke="#f8fafc" stroke-width="6" stroke-linecap="round"/>
  <text x="553.3" y="732.6" fill="#94a3b8" font-size="11" font-weight="600" text-anchor="middle" dominant-baseline="middle">1.50m</text>
  <line x1="618.3" y1="714.6" x2="618.4" y2="1079.6" stroke="#f8fafc" stroke-width="6" stroke-linecap="round"/>
  <text x="600.3" y="897.1" fill="#94a3b8" font-size="11" font-weight="600" text-anchor="middle" dominant-baseline="middle">4.22m</text>
  <line x1="618.4" y1="1079.6" x2="488.4" y2="1079.6" stroke="#f8fafc" stroke-width="6" stroke-linecap="round"/>
  <text x="553.4" y="1061.6" fill="#94a3b8" font-size="11" font-weight="600" text-anchor="middle" dominant-baseline="middle">1.50m</text>
  <text x="553.4" y="885.1" fill="#f1f5f9" font-size="16" font-weight="bold" text-anchor="middle">Hallway 04</text>
  <text x="553.4" y="907.1" fill="#38bdf8" font-size="13" font-weight="600" text-anchor="middle">6.33 m²</text>
  <text x="553.4" y="925.1" fill="#64748b" font-size="10" text-anchor="middle">H: 2.70m</text>
  <!-- Title Block -->
  <g transform="translate(40, 40)">
    <rect width="420" height="110" rx="8" fill="#1e293b" fill-opacity="0.95" stroke="#334155" stroke-width="1.5"/>
    <text x="20" y="32" fill="#f8fafc" font-size="15" font-weight="800">MULTI-ROOM BLUEPRINT: tier3_lidar_raw</text>
    <text x="20" y="56" fill="#38bdf8" font-size="11" font-weight="600">MODE: MULTI-ROOM GRAPH STITCHING (4 ROOMS)  |  TIER: LIDAR</text>
    <text x="20" y="78" fill="#94a3b8" font-size="12">Total Footprint: <tspan fill="#f8fafc" font-weight="bold">54.16 m²</tspan> (4 Connected Rooms)</text>
    <text x="20" y="98" fill="#f43f5e" font-size="12" font-weight="bold">Scope Estimate: $0.00</text>
  </g>
  <!-- North Arrow -->
  <g transform="translate(1120, 60)">
    <circle cx="0" cy="0" r="24" fill="#1e293b" stroke="#334155" stroke-width="1.5"/>
    <path d="M 0 -16 L 6 8 L 0 4 L -6 8 Z" fill="#ef4444"/>
    <path d="M 0 16 L 6 8 L 0 4 L -6 8 Z" fill="#64748b"/>
    <text x="0" y="-20" fill="#f8fafc" font-size="10" font-weight="bold" text-anchor="middle">N</text>
  </g>
</svg>